<?xml version="1.0" encoding="UTF-8" standalone="no"?>
<svg
   xml:space="preserve"
   id="Layer_1"
   x="0"
   y="0"
   style="enable-background:new 0 0 333.9 82.7"
   version="1.1"
   viewBox="0 0 333.9 82.7"
   sodipodi:docname="adguardvpn-gui.svg"
   inkscape:version="1.4.3 (0d15f75042, 2025-12-25)"
   xmlns:inkscape="http://www.inkscape.org/namespaces/inkscape"
   xmlns:sodipodi="http://sodipodi.sourceforge.net/DTD/sodipodi-0.dtd"
   xmlns="http://www.w3.org/2000/svg"
   xmlns:svg="http://www.w3.org/2000/svg"><defs
     id="defs7" /><sodipodi:namedview
     id="namedview7"
     pagecolor="#505050"
     bordercolor="#ffffff"
     borderopacity="1"
     inkscape:showpageshadow="0"
     inkscape:pageopacity="0"
     inkscape:pagecheckerboard="1"
     inkscape:deskcolor="#505050"
     showgrid="false"
     inkscape:zoom="8.9338127"
     inkscape:cx="166.95"
     inkscape:cy="41.359721"
     inkscape:window-width="3822"
     inkscape:window-height="1552"
     inkscape:window-x="0"
     inkscape:window-y="0"
     inkscape:window-maximized="1"
     inkscape:current-layer="Layer_1" /><style
     id="style1">.st0{fill-rule:evenodd;clip-rule:evenodd}.st0,.st1{fill:#fff}.st2{fill-rule:evenodd;clip-rule:evenodd;fill:#f3f3f3}.st4{fill:#d2d2d2}</style><path
     d="m201.6 44.9-10-23.7H186l-10.1 23.7h6.3l1.8-4.7h9.3l1.9 4.7h6.4zm-16-9.3 3.1-8.1 3 8.1h-6.1z"
     class="st0"
     id="path1" /><path
     d="M175.2 35.9c0 1.4-.2 2.7-.7 3.9s-1.2 2.2-2.1 3-2 1.5-3.2 2c-1.3.5-2.7.7-4.2.7-1.6 0-3-.2-4.2-.7s-2.3-1.1-3.2-2c-.9-.8-1.5-1.8-2-3s-.7-2.5-.7-3.9V21.1h5.7v14.3c0 .6.1 1.3.3 1.8.2.6.4 1.1.8 1.6.3.5.8.8 1.4 1.1s1.3.4 2.1.4 1.5-.1 2.1-.4c.6-.3 1-.6 1.4-1.1s.6-1 .8-1.6.2-1.2.2-1.8V21.1h5.7v14.8h-.2zM150.9 43.5a18.6 18.6 0 0 1-9 2.1c-1.9 0-3.6-.3-5.1-.9a11.6 11.6 0 0 1-6.6-6.5 13.6 13.6 0 0 1 0-10.3 11.8 11.8 0 0 1 6.7-6.4 14.4 14.4 0 0 1 10.1 0c1.6.6 2.9 1.3 3.8 2.3l-3.5 4.1c-.5-.6-1.3-1.2-2.2-1.6a7.5 7.5 0 0 0-5.8 0c-.8.4-1.6.9-2.2 1.5-.6.7-1.1 1.4-1.4 2.3a9.4 9.4 0 0 0 0 6c.3.9.8 1.7 1.4 2.4s1.3 1.2 2.2 1.5c.9.4 1.9.6 3 .6l1.9-.2 1.6-.5v-4.3h-4.4V31h9.6l-.1 12.5z"
     class="st1"
     id="path2" /><path
     d="M237.9 21.8a20 20 0 0 0-4.9-.6h-8.4v23.7h8.7a14.9 14.9 0 0 0 8.9-2.8c1.2-1 2.2-2.2 3-3.7s1.1-3.3 1.1-5.4c0-2.2-.4-4.1-1.1-5.6a10.7 10.7 0 0 0-7.3-5.6zm-7.8 4.3h2.8c1 0 1.9.1 2.8.3s1.7.6 2.4 1.1 1.3 1.2 1.7 2.1.6 2 .6 3.3c0 1.3-.2 2.4-.6 3.3-.4.9-1 1.6-1.7 2.1s-1.5.9-2.5 1.2c-.9.2-1.9.4-2.9.4h-2.6V26.1zM118.1 21.8a20 20 0 0 0-4.9-.6h-8.4v23.7h8.7a14.9 14.9 0 0 0 8.9-2.8c1.2-1 2.2-2.2 3-3.7s1.1-3.3 1.1-5.4a10.7 10.7 0 0 0-4.2-9.2 9.1 9.1 0 0 0-4.2-2zm-7.8 4.3h2.8c1 0 1.9.1 2.8.3s1.7.6 2.4 1.1c.7.5 1.3 1.2 1.7 2.1.4.9.6 2 .6 3.3 0 1.3-.2 2.4-.6 3.3s-1 1.6-1.7 2.1-1.5.9-2.5 1.2c-.9.2-1.9.4-2.9.4h-2.7l.1-13.8zM102.8 44.9l-10-23.7h-5.6L77.1 44.9h6.3l1.8-4.7h9.3l1.9 4.7h6.4zm-15.9-9.3 3.1-8.1 3 8.1h-6.1zM215 21.5c-1.1-.2-2.2-.4-3.3-.4h-8.9v23.7h5.5v-9.4h1.9l5 9.4h6.6l-6.1-10.1a7.5 7.5 0 0 0 3.6-2.3 6 6 0 0 0 1.3-4c0-1.4-.3-2.5-.8-3.4s-1.2-1.7-2-2.2c-.7-.6-1.7-1-2.8-1.3zm-6.6 4.3h3a5.7 5.7 0 0 1 2.5.5c.4.2.7.5.9.8s.3.8.3 1.4-.1 1.1-.4 1.5-.6.7-1 .9l-1.3.4-1.4.1h-2.7l.1-5.6c-.1 0 0 0 0 0zM274.3 20.5l-8.8 23.6h-2.8l-8.8-23.6h3.4l6.8 19.4 6.8-19.4h3.4zm6.3 14.3V44h-3.2V20.4h8.9c2.6 0 4.7.7 6.2 2s2.2 3.1 2.2 5.2c0 2.3-.7 4-2.2 5.3-1.5 1.3-3.5 1.9-6.3 1.9h-5.6zm5.7-2.5h-5.7v-9.4h5.9c1.6 0 2.8.5 3.7 1.3.9.9 1.4 2 1.4 3.4 0 1.5-.5 2.7-1.4 3.5s-2.2 1.2-3.9 1.2zm14.8-6.4v18.2h-3.3V20.5h3.3l12.4 18.2V20.5h3.2v23.6h-3.3l-12.3-18.2z"
     class="st0"
     id="path3" /><path
     d="M40 54.7a23.3 23.3 0 1 0 0-46.6 23.3 23.3 0 0 0 0 46.6zm13.5-29.1A28.7 28.7 0 0 0 39.2 22c-4.9.2-9.7.9-13.9 3.7-3.4 2.2-4.8 6.4-3.4 10.2 1.1 3 4.4 4.1 7.4 3.8 1.1-.1 2.2-.4 3.3-.8l1.4-.4c3.3-.8 6.5-1.1 9.9-.2 1.9.5 3.8 1 5.8 1.2 4.6.5 8.2-2 8.1-7-.1-3-1.7-5.3-4.3-6.9z"
     class="st2"
     id="path4" /><path
     d="M51.9 31.5c0 1.7-1.2 3.4-2.7 3.4s-2.6-1.5-2.6-3 1.2-3.2 2.6-3.3c1.5-.2 2.7 1.1 2.7 2.9zM32.3 31.5c0 1.7-1.2 3.4-2.7 3.4s-2.6-1.5-2.6-3 1.2-3.2 2.6-3.3c1.5-.2 2.7 1.1 2.7 2.9z"
     class="st2"
     id="path5" /><path
     d="M38.8 70.7a47 47 0 0 1-16-15.2c-1.1-1.7 1-3.6 2.6-2.5a26 26 0 0 0 28.8 0c1.6-1.1 3.7.8 2.6 2.5a48.4 48.4 0 0 1-16 15.4c-.7.1-1.4.1-2-.2z"
     style="fill-rule:evenodd;clip-rule:evenodd;fill:#74a352"
     id="path6" /><text
     xml:space="preserve"
     style="font-size:16.765px;line-height:1.25;font-family:sans-serif;text-align:center;letter-spacing:0px;word-spacing:0px;text-anchor:middle;fill:#d2d2d2;fill-opacity:1;stroke-width:0.419127"
     x="198.57899"
     y="65.586708"
     id="text7"><tspan
       sodipodi:role="line"
       id="tspan7"
       x="198.57899"
       y="65.586708"
       style="stroke-width:0.419127">GRAPHICAL INTERFACE</tspan></text></svg>
